# xmcd
#
# Track frame offsets: 
#        150
#        17519
#        27719
#        38433
#        51168
#        68425
#        81641
#        95310
#        108317
#        124080
#        144675
#        165396
#        181990
#        194422
#        201955
#        215549
#
# Disc length: 3059 seconds
#
# Revision: 7
# Processed by: cddbd v1.5.2PL0 Copyright (c) Steve Scherf et al.
# Submitted via: ExactAudioCopyFreeDBPlugin 1.0
#
DISCID=dd0bf110
DTITLE=Various Artist - Irish Country - The Best Of Irish Music, disc
DTITLE=3
DYEAR=1999
DGENRE=Folk
TTITLE0=Hugo Duncan - Sweet forget me not
TTITLE1=Mick Flavin - Kitty from Coleraine
TTITLE2=Susan McCann - Country roads
TTITLE3=Brian Coll - The green fields of Ireland
TTITLE4=Big Ivan - Goodbye Johnny dear
TTITLE5=Mick Flavin - Tipperary so far away
TTITLE6=Seamus McGee - Fishing boats of Ireland
TTITLE7=Ann Breen - Two loves
TTITLE8=Kathy Durkin - My own native land
TTITLE9=Teamwork - Is there anyone can tell me?
TTITLE10=Jim Finnegan - The gold and silver days
TTITLE11=Ann Breen - Love is teasin'
TTITLE12=Hugo Duncan - Brady from Strabane
TTITLE13=Colm and The Sundowners - Real old mountain dew
TTITLE14=Hugo Duncan - Clock on the tower
TTITLE15=Frankie McBride - Forty shades of green
EXTD=
EXTT0=
EXTT1=
EXTT2=
EXTT3=
EXTT4=
EXTT5=
EXTT6=
EXTT7=
EXTT8=
EXTT9=
EXTT10=
EXTT11=
EXTT12=
EXTT13=
EXTT14=
EXTT15=
PLAYORDER=
